<svg preserveAspectRatio="none" width="100%" height="100%" overflow="visible" style="display: block;" viewBox="0 0 90 90" fill="none" xmlns="http://www.w3.org/2000/svg">
<g id="Big Ben [Vectorized]">
<g id="Vector">
<path d="M26.5845 45.0343C28.3297 44.9072 31.0697 44.9909 32.8902 44.9917L44.5692 44.9977L56.438 44.9912C58.5787 44.9881 60.7298 44.9565 62.866 45.0228C64.1231 45.0793 65.4546 45.7699 65.6941 47.1224C66.0718 49.2556 65.9262 51.6711 65.9238 53.8545L65.9148 63.9843L65.9242 72.8386C65.9261 75.4029 66.2837 78.1805 64.931 80.439C64.2554 80.5789 64.1235 80.9205 63.4354 81.0604C62.1448 81.229 58.9264 81.1289 57.4829 81.1274L33.0056 81.1183C31.2978 81.1202 29.5893 81.1778 27.8808 81.1772C26.5902 81.1767 25.9125 80.8101 24.8001 80.2237C23.8061 78.0698 24.0643 76.3679 24.0651 74.0578L24.0659 54.3894C24.0653 52.3384 24.0506 50.2947 24.1045 48.244C24.1461 46.6669 24.8812 45.2722 26.5845 45.0343ZM34.7917 61.3464L34.6751 61.1338L34.5962 61.1426C34.4531 61.9876 34.4411 62.1569 34.1531 62.9433C33.7648 63.6811 34.0808 65.5112 34.5133 66.1972C34.6049 66.3424 34.7084 67.6208 34.8282 67.7522C35.4872 68.4741 36.3858 70.0938 37.2417 70.7269C37.2223 70.7203 37.2146 70.8903 37.317 71.0412C37.8798 71.2215 38.4865 71.3608 38.8603 71.8297L38.9101 71.5991L38.9151 71.8674C39.1002 72.0366 39.8362 72.1503 40.0845 72.1389C44.0477 74.283 48.9423 73.6194 52.1915 70.4974C55.4407 67.3755 56.2992 62.5113 54.3152 58.4656C52.331 54.42 47.9594 52.1209 43.5017 52.7787C39.044 53.4364 35.5227 56.9001 34.7917 61.3464Z" fill="#006960"/>
<path d="M46.2308 55.6064C46.9832 55.7391 47.7225 55.6655 48.1934 56.3723C48.4024 57.3256 47.4108 60.767 47.0483 61.7526C45.3857 63.274 49.6628 65.0282 48.375 66.6693C48.2969 66.7688 47.8167 66.859 47.6879 66.8769C47.2213 66.6235 45.6463 65.5639 45.3879 65.4904C44.6968 64.907 43.7051 64.2361 43.6441 63.3219C43.5359 61.6983 45.3007 56.7541 46.2308 55.6064Z" fill="#006960"/>
<path d="M45.3879 65.4904C45.6463 65.5639 47.2213 66.6235 47.6879 66.8769C47.8167 66.859 48.2969 66.7688 48.375 66.6693C49.6628 65.0282 45.3857 63.274 47.0483 61.7526C46.9709 62.2093 46.8784 62.5714 47.2099 62.9407C47.7619 63.5556 48.7005 64.579 49.2763 65.1372C49.5243 67.2264 49.3017 67.7859 47.1122 67.2516C46.6573 66.7579 45.7488 65.9201 45.3879 65.4904Z" fill="#006960"/>
<path d="M34.1531 62.9433C34.1341 63.3359 34.0252 63.6696 34.2885 63.9471C34.4614 63.7086 34.2765 63.0769 34.4839 62.6883L34.6604 62.6756C34.527 66.6035 36.6278 70.2688 40.0845 72.1389C39.8362 72.1503 39.1002 72.0366 38.9151 71.8674L38.9101 71.5991L38.8603 71.8297C38.4865 71.3608 37.8798 71.2215 37.317 71.0412C37.2146 70.8903 37.2223 70.7203 37.2417 70.7269C36.3858 70.0938 35.4872 68.4741 34.8282 67.7522C34.7084 67.6208 34.6049 66.3424 34.5133 66.1972C34.0808 65.5112 33.7648 63.6811 34.1531 62.9433Z" fill="#006960"/>
<path d="M34.1531 62.9433C34.4411 62.1569 34.4531 61.9876 34.5962 61.1426L34.6751 61.1338L34.7917 61.3464C34.7193 61.7861 34.6755 62.2302 34.6604 62.6756L34.4839 62.6883C34.2765 63.0769 34.4614 63.7086 34.2885 63.9471C34.0252 63.6696 34.1341 63.3359 34.1531 62.9433Z" fill="#006960"/>
<path d="M43.4526 6.18088C43.9174 5.71374 43.93 5.35358 44.1613 4.76955C44.6279 4.78061 45.5047 4.79233 45.8744 5.08122C45.9518 5.32894 46.9122 8.03991 46.9762 8.10294C48.2535 9.36053 50.2909 15.3203 51.5246 16.1059C51.5514 16.205 51.8831 16.7069 51.954 16.8445C52.7419 18.3756 53.6882 19.6579 53.8813 21.4157C54.0867 23.2854 53.8552 25.1614 54.0682 27.0313C56.3565 29.8057 58.3951 32.9769 60.6574 35.8004C61.3195 36.6269 62.304 37.743 62.7141 38.6862L62.6432 38.826C61.9533 39.1901 56.5653 39.0582 55.404 39.0557L45.3926 39.0515L35.1964 39.0607C33.9706 39.0638 27.8155 39.2368 27.252 38.7242C27.1515 38.1765 27.5519 38.2093 27.8248 37.8417C30.468 34.281 33.2299 30.6962 35.7954 27.0784C36.4285 25.1467 35.54 21.9888 36.4017 20.1625C38.606 15.4908 41.1724 10.8164 43.4526 6.18088Z" fill="#006960"/>
<path d="M43.4526 6.18088C43.5671 5.77454 43.7014 5.34183 43.8119 4.92136C44.0002 4.20492 44.4058 3.58501 45.2473 3.85697C45.4163 3.9116 45.7236 4.02559 45.7988 4.19535C46.1987 5.11761 46.5194 6.06346 46.9759 6.96115L50.2695 13.582C50.5868 14.2254 51.334 15.513 51.5246 16.1059C50.2909 15.3203 48.2535 9.36053 46.9762 8.10294C46.9122 8.03991 45.9518 5.32894 45.8744 5.08122C45.5047 4.79233 44.6279 4.78061 44.1613 4.76955C43.93 5.35358 43.9174 5.71374 43.4526 6.18088Z" fill="var(--fill-0, #006960)"/>
</g>
</g>
</svg>
