<svg preserveAspectRatio="none" width="100%" height="100%" overflow="visible" style="display: block;" viewBox="0 0 90 90" fill="none" xmlns="http://www.w3.org/2000/svg">
<g id="Connected People [Vectorized]">
<g id="Vector">
<path d="M56.2855 45.1501C56.952 43.2246 57.777 42.32 59.5715 41.3481C60.0692 40.8879 61.8079 40.9143 62.1635 40.705C65.0348 39.0146 66.5287 38.452 69.7446 39.6031C75.2822 41.5852 75.7513 47.2814 76.0186 52.2463C75.9507 53.219 76.053 54.2534 76.0639 55.2345C76.081 56.7755 76.0462 58.252 76.2739 59.7836C76.3979 60.6177 76.6664 61.1539 76.8364 61.9066L77.0178 62.0889C77.0386 62.5607 77.3523 62.8413 77.4321 63.4583C77.5575 64.4286 76.4955 65.2232 75.5969 65.3501C74.8586 65.2871 73.5616 65.9051 72.8536 66.0029C72.1287 66.103 70.4833 65.583 69.7385 65.825C69.4393 66.2624 69.5514 67.5817 69.5868 68.1485L69.6972 68.2872C70.5102 73.5551 80.8744 71.4121 81.0141 81.0713C78.8776 81.2466 75.2505 81.1289 72.9954 81.1273L57.7052 81.1279L53.364 81.1462C52.6386 81.1428 51.665 81.0425 50.9916 81.149C50.991 81.0013 50.9917 80.8536 50.9933 80.7058C51.0415 76.6432 53.2699 74.4392 56.8166 72.819C58.4583 72.0691 61.4292 70.8545 62.2247 68.9738C62.4141 68.5261 62.3752 67.0328 62.3785 66.4566C60.19 66.5435 55.8996 65.7668 54.2832 64.0718C53.8805 63.6495 54.7235 62.1585 54.8803 61.4061C55.3857 60.2089 54.8987 53.6332 55.1768 51.7981C55.308 51.7157 55.3275 51.6825 55.4238 51.568C55.5476 51.0461 55.2777 50.3303 55.5233 50.0549L55.5759 50.4734C55.6161 50.2901 55.6044 50.2917 55.717 50.1489C56.0162 49.769 55.9336 48.7953 55.9109 48.3372C55.9724 47.0685 56.089 46.3955 56.2855 45.1501Z" fill="#006960"/>
<path d="M19.2093 13.5628C19.9692 13.0382 20.5242 12.0611 21.2409 11.5087C22.9864 10.1631 25.937 9.31096 28.1033 9.47232C28.2427 9.95432 29.9453 10.4034 30.16 10.7952C31.0933 12.498 31.2996 12.0112 32.9075 12.1987C32.978 12.2528 33.0011 12.2667 33.0151 12.3501C33.1085 12.9045 34.0062 13.2907 34.3637 13.6562C34.4279 13.7217 34.7627 14.5426 34.8684 14.7579L34.9956 14.8005C35.0911 14.6034 35.104 14.5568 35.2497 14.3978C35.4292 14.495 35.3577 14.4267 35.4549 14.6247L35.3307 14.8379C35.5839 15.3303 35.7287 16.2564 35.9079 16.5011L35.9888 16.2011C36.0874 16.5204 36.144 16.6051 36.3158 16.893C36.626 18.9074 36.305 20.9756 36.1627 22.9862C36.1286 24.3056 36.6088 25.9036 36.0838 27.1534C35.9726 27.4183 34.9278 28.2427 34.784 28.5323C33.7345 30.6471 33.0675 31.9141 31.4303 33.6395C31.1569 34.978 30.9504 36.4932 31.7545 37.6947C33.2347 39.9065 36.2612 40.1427 38.204 41.078C38.2926 41.5936 38.3725 41.622 38.7938 41.9585C39.6738 42.0275 41.6435 43.5398 42.3226 44.173C43.1009 44.8986 43.6568 46.2786 44.0516 47.2573L44.0483 47.0668C44.3331 47.8827 44.4488 48.7481 44.3883 49.6101C44.3635 50.0084 44.2926 50.3438 44.3302 50.7472C43.5192 50.9774 37.7755 50.8518 36.6537 50.8521L18.0178 50.8524L12.349 50.8597C11.2095 50.8569 10.6491 50.7865 9.47291 50.8399C9.01939 50.2357 9.80733 47.6285 10.0348 46.9191C10.9344 44.1132 13.5478 42.6308 16.1091 41.5623C17.4789 40.9909 19.0312 40.5991 20.3742 39.9313C21.3719 39.4191 22.4812 38.5848 22.7484 37.4737C23.0853 36.0731 23.3829 34.0958 22.6421 32.7749C22.4319 32.4002 22.4256 32.4838 21.9808 32.3558C21.7779 32.1431 21.9665 31.9086 21.8969 31.8212C21.575 31.417 21.0452 31.0387 20.743 30.526C20.1971 29.5998 20.0959 28.4402 19.3797 27.6327C19.2471 27.5377 18.5963 27.2647 18.5363 27.1793C17.2702 25.3767 18.9425 22.3784 17.5553 20.4701C17.4931 19.8757 17.4349 19.465 17.4844 18.8668C17.6901 18.459 17.7035 18.0965 17.7735 17.6508C18.0384 15.9623 18.0164 15.6156 18.9575 14.191L18.9542 14.2513C19.2345 13.9757 19.1503 14.0386 19.2093 13.5628Z" fill="#006960"/>
<path d="M44.054 8.98102C45.8084 8.86764 48.0559 8.94015 49.8619 8.94199L60.2355 8.94981L67.1668 8.93883C68.7249 8.93426 70.7918 8.81877 72.2949 9.12621C76.6795 10.0231 80.0427 13.349 80.8312 17.7821C80.9419 18.4141 81.0081 19.053 81.0293 19.6943C81.1053 21.7503 81.0293 24.1042 81.0304 26.2298C81.0316 28.5254 81.1704 31.2434 80.9045 33.4752C80.7535 34.743 79.7708 35.3792 78.8192 36.002C78.6931 36.0412 78.5658 36.0762 78.4373 36.1068C77.3418 36.372 76.7018 35.8166 75.7722 35.2538C74.8585 33.314 75.0272 31.9837 75.0325 29.9007L75.0497 23.1538C75.0528 21.7196 75.1162 20.1996 74.9155 18.7774C74.7492 17.5985 74.1732 16.7703 73.2567 16.0405C72.029 15.0627 70.5099 15.12 69.0221 15.0481C67.804 15.0104 66.5423 15.0296 65.3125 15.0285L51.253 15.0311C49.123 15.034 46.8286 15.1477 44.7244 15.0023C43.8609 14.9427 43.0281 14.3759 42.5139 13.681C42.0889 13.1064 41.9153 12.3841 42.0326 11.6791C42.2313 10.4099 43.0893 9.68555 44.054 8.98102Z" fill="#006960"/>
<path d="M11.2885 56.9879C15.1189 56.7018 14.9626 59.8054 14.9554 62.589L14.9372 67.8478C14.9294 70.0771 14.6021 72.0198 16.383 73.6255C17.766 74.8726 18.9617 75.0352 20.7307 75.0419C22.642 75.0491 24.5344 75.0456 26.432 75.0447L35.3483 75.0298C36.7065 75.025 38.5034 74.935 39.8211 75.1674C40.3747 75.265 41.0346 75.7855 41.4863 76.1302C42.3742 78.0314 42.0429 79.6717 40.1459 80.8533C39.9642 80.9664 39.8419 81.0191 39.6317 81.0716C38.6118 81.2179 37.2964 81.1522 36.2352 81.1405C34.804 81.1275 33.3727 81.1223 31.9415 81.1245L24.6083 81.1274C22.3127 81.1364 19.9914 81.2674 17.6953 80.8469C13.5108 80.0803 10.2442 76.9398 9.28113 72.7973C8.65826 70.1183 9.05191 67.2173 8.95699 64.4839C8.95453 62.9728 8.89828 61.4803 8.99602 59.9728C9.07705 58.7241 10.0378 57.2495 11.2885 56.9879Z" fill="#006960"/>
<path d="M17.5553 20.4701C18.9425 22.3784 17.2702 25.3767 18.5363 27.1793C18.5963 27.2647 19.2471 27.5377 19.3797 27.6327C20.0959 28.4402 20.1971 29.5998 20.743 30.526C21.0452 31.0387 21.575 31.417 21.8969 31.8212C21.9665 31.9086 21.7779 32.1431 21.9808 32.3558C22.4256 32.4838 22.4319 32.4002 22.6421 32.7749C23.3829 34.0958 23.0853 36.0731 22.7484 37.4737C22.4812 38.5848 21.3719 39.4191 20.3742 39.9313C19.0312 40.5991 17.4789 40.9909 16.1091 41.5623C13.5478 42.6308 10.9344 44.1132 10.0348 46.9191C9.80733 47.6285 9.01939 50.2357 9.47291 50.8399C10.6491 50.7865 11.2095 50.8569 12.349 50.8597L18.0178 50.8524L36.6537 50.8521C37.7755 50.8518 43.5192 50.9774 44.3302 50.7472C44.2926 50.3438 44.3635 50.0084 44.3883 49.6101C44.4488 48.7481 44.3331 47.8827 44.0483 47.0668L44.0516 47.2573C43.6568 46.2786 43.1009 44.8986 42.3226 44.173C41.6435 43.5398 39.6738 42.0275 38.7938 41.9585C38.3725 41.622 38.2926 41.5936 38.204 41.078C43.094 42.9115 44.8763 45.8085 45.0132 50.9764C40.0028 51.1218 34.4911 51.0105 29.4482 51.0098C22.6067 51.0369 15.7652 51.0278 8.92377 50.9825C8.98749 50.1619 8.95655 49.5192 9.12073 48.6771C10.0129 44.1018 12.412 42.2032 16.6646 40.7436C19.3236 39.831 20.596 39.5741 22.4248 37.4642C22.7643 35.8515 22.6547 35.1418 22.4784 33.5176C20.8048 31.9567 20.2522 30.8559 19.324 28.8528C19.0001 28.1536 17.805 27.7164 17.6165 26.5146C17.2896 25.4047 17.8818 24.2332 17.8473 23.171C17.8208 22.3561 17.6129 21.3297 17.5553 20.4701Z" fill="#006960"/>
<path d="M17.4844 18.8668C17.5099 18.2538 17.5194 17.6338 17.6066 17.0011C18.2916 12.0314 22.8426 8.52203 27.7909 8.95333C29.4367 9.09677 30.3885 10.0869 31.3355 11.3179C31.9225 11.5273 32.5192 11.7358 33.094 11.9763C34.9909 12.77 36.1922 14.8873 36.3158 16.893C36.144 16.6051 36.0874 16.5204 35.9888 16.2011L35.9079 16.5011C35.7287 16.2564 35.5839 15.3303 35.3307 14.8379L35.4549 14.6247C35.3577 14.4267 35.4292 14.495 35.2497 14.3978C35.104 14.5568 35.0911 14.6034 34.9956 14.8005L34.8684 14.7579C34.7627 14.5426 34.4279 13.7217 34.3637 13.6562C34.0062 13.2907 33.1085 12.9045 33.0151 12.3501C33.0011 12.2667 32.978 12.2528 32.9075 12.1987C31.2996 12.0112 31.0933 12.498 30.16 10.7952C29.9453 10.4034 28.2427 9.95432 28.1033 9.47232C25.937 9.31096 22.9864 10.1631 21.2409 11.5087C20.5242 12.0611 19.9692 13.0382 19.2093 13.5628C19.1503 14.0386 19.2345 13.9757 18.9542 14.2513L18.9575 14.191C18.0164 15.6156 18.0384 15.9623 17.7735 17.6508C17.7035 18.0965 17.6901 18.459 17.4844 18.8668Z" fill="#006960"/>
<path d="M76.0186 52.2463C76.1943 53.115 76.2603 55.8358 76.299 56.8565L76.3456 56.8807C76.4686 56.2658 76.4853 55.7295 76.4835 55.103L76.6639 55.1753C76.755 55.8413 76.8644 61.0478 76.9109 61.1391C76.9395 61.4155 76.9699 61.8274 77.0178 62.0889L76.8364 61.9066C76.6664 61.1539 76.3979 60.6177 76.2739 59.7836C76.0462 58.252 76.081 56.7755 76.0639 55.2345C76.053 54.2534 75.9507 53.219 76.0186 52.2463Z" fill="#006960"/>
<path d="M55.9028 46.4452C55.896 46.0181 56.0745 45.5193 56.2855 45.1501C56.089 46.3955 55.9724 47.0685 55.9109 48.3372C55.8698 48.6 55.8609 48.8776 55.6753 49.0598L55.5617 49.0083L55.4792 48.572C55.2115 48.9826 55.1252 51.2775 55.1768 51.7981C54.8987 53.6332 55.3857 60.2089 54.8803 61.4061C54.8359 61.1809 54.9798 59.2851 54.9829 58.8353C54.9988 56.5042 54.9887 54.1725 55.0082 51.8416C55.0184 50.6258 55.1576 49.3749 55.1455 48.1796C55.2474 48.0263 55.2622 48.0074 55.3971 47.8831L55.612 47.9804L55.7711 47.9108C55.9095 47.5915 55.8918 46.8272 55.9028 46.4452Z" fill="#006960"/>
<path d="M69.6972 68.2872L69.5868 68.1485C69.5514 67.5817 69.4393 66.2624 69.7385 65.825C70.4833 65.583 72.1287 66.103 72.8536 66.0029C73.5616 65.9051 74.8586 65.2871 75.5969 65.3501C74.0831 66.1277 71.4453 66.4283 69.7346 66.4957C69.7187 67.0752 69.6889 67.7128 69.6972 68.2872Z" fill="#006960"/>
<path d="M55.9109 48.3372C55.9336 48.7953 56.0162 49.769 55.717 50.1489C55.6044 50.2917 55.6161 50.2901 55.5759 50.4734L55.5233 50.0549C55.2777 50.3303 55.5476 51.0461 55.4238 51.568C55.3275 51.6825 55.308 51.7157 55.1768 51.7981C55.1252 51.2775 55.2115 48.9826 55.4792 48.572L55.5617 49.0083L55.6753 49.0598C55.8609 48.8776 55.8698 48.6 55.9109 48.3372Z" fill="#006960"/>
<path d="M76.4835 55.103C76.3995 54.7838 76.3883 54.4465 76.5846 54.1675L76.6906 54.183C76.9012 54.5757 77.0269 60.6725 76.9109 61.1391C76.8644 61.0478 76.755 55.8413 76.6639 55.1753L76.4835 55.103Z" fill="#006960"/>
<path d="M55.1455 48.1796C55.165 46.9644 55.6506 47.4056 55.9028 46.4452C55.8918 46.8272 55.9095 47.5915 55.7711 47.9108L55.612 47.9804L55.3971 47.8831C55.2622 48.0074 55.2474 48.0263 55.1455 48.1796Z" fill="var(--fill-0, #006960)"/>
</g>
</g>
</svg>
