<svg preserveAspectRatio="none" width="100%" height="100%" overflow="visible" style="display: block;" viewBox="0 0 90 90" fill="none" xmlns="http://www.w3.org/2000/svg">
<g id="Diploma [Vectorized]">
<g id="Vector">
<path d="M11.3848 14.9745C13.3029 14.7973 16.8715 14.9207 18.9047 14.9241L76.9366 14.9177C78.0932 14.9233 79.1453 14.9131 80.0034 15.8294C80.5704 16.3862 80.9195 17.0819 80.9711 17.8973C81.101 19.9494 81.0405 22.0863 81.0362 24.1465L81.0359 56.9992C81.0367 60.7042 81.0501 64.4156 81.0308 68.1213C81.025 69.2576 80.8462 70.4094 79.9886 71.2435C79.6769 71.5274 79.0828 71.9736 78.6422 72.0142C76.9134 72.1737 75.0502 72.1034 73.316 72.1053C69.5361 72.1356 65.7559 72.1219 61.9762 72.0641C62.5685 70.385 62.7957 67.6644 62.942 65.8697C64.0674 65.9353 65.4346 65.8803 66.5775 65.8944C69.3831 65.9291 72.2398 65.8441 75.0422 65.9213L75.0473 24.5435C75.0484 23.3633 75.0416 22.1832 75.027 21.003C73.7858 21.0629 72.0032 21.0076 70.7158 21.0075L21.3128 21.0041C20.0544 21.0033 15.9412 21.1182 14.9677 20.9856C14.9075 23.4878 14.9619 25.9964 14.9409 28.499C14.8366 40.9348 15.0922 53.419 14.9308 65.8493C18.8583 65.9896 23.0875 65.8815 27.0519 65.9123C27.0746 67.8513 27.449 70.1853 27.9777 72.0389C26.8378 72.1322 25.3431 72.1023 24.1848 72.103H18.1453C16.0378 72.1042 13.5784 72.2105 11.4896 72.0149C11.0754 71.9761 10.0383 71.3168 9.64547 71.0625C9.27229 70.3209 8.97636 69.6241 8.96432 68.778C8.92591 66.094 8.95175 63.4031 8.95219 60.7184L8.95025 27.785C8.94718 24.7426 8.92573 21.699 8.9608 18.6571C8.98251 16.782 9.64011 15.6913 11.3848 14.9745Z" fill="var(--fill-0, #006960)"/>
<path d="M29.2594 30.0847C30.7644 29.97 32.6725 30.0362 34.2243 30.0371L53.7507 30.0362C55.9133 30.0335 59.3901 29.8297 61.5265 30.3705C62.7362 30.6766 63.2388 33.0618 62.713 34.1575C62.1467 35.338 61.8536 35.4731 60.6731 36.0312C59.3492 36.2414 56.4966 36.1314 54.9973 36.1284L44.4726 36.12L34.8703 36.1282C33.3301 36.1344 31.7413 36.215 30.209 36.1412C29.4465 36.1043 28.4716 35.6151 27.7607 35.2853C26.7934 33.7087 27.0037 32.8003 27.3894 31.0828C28.0498 30.5633 28.4951 30.3979 29.2594 30.0847Z" fill="var(--fill-0, #006960)"/>
<path d="M29.1512 42.0367C30.7087 41.9138 32.7977 41.9897 34.4187 41.9906L53.9298 41.9891C54.8633 41.9875 55.8197 41.9694 56.7439 41.9844C58.1362 42.0303 59.8579 41.8412 61.1953 42.2204C62.8269 42.6828 63.4794 45.4779 62.4233 46.7478C61.8703 47.4128 61.4332 47.6041 60.7032 47.9781C59.3401 48.1975 56.3605 48.0849 54.8139 48.0821L43.7317 48.0744L34.75 48.0824C33.2448 48.0897 31.6691 48.1674 30.1735 48.0838C29.4038 48.0408 28.5064 47.5738 27.8148 47.2401C27.6535 47.0399 27.5075 46.8279 27.3782 46.6058C26.9922 45.9361 26.9317 44.7983 27.1604 44.0677C27.5057 42.9646 28.2161 42.5535 29.1512 42.0367Z" fill="var(--fill-0, #006960)"/>
<path d="M36.2323 90C36.1795 89.3848 36.0533 88.6966 36.0387 88.1095C35.9665 85.2075 36.0404 82.2958 36.0237 79.3898C36.0147 77.8099 36.06 76.2941 35.9561 74.704C35.9127 73.1878 34.5475 72.1274 33.9809 70.8423C32.644 67.811 32.7799 63.6037 34.2416 60.6399C34.6802 59.7505 36.6118 57.1613 37.4094 56.6155C39.3104 55.3144 41.7805 54.166 44.096 53.9474C47.0301 53.6832 50.6286 55.02 52.8163 56.9151C55.2939 59.0613 56.6584 61.7048 56.9025 64.976C57.0763 67.3068 56.6249 69.8728 55.3874 71.8735C54.9714 72.546 54.0855 73.7764 54.0315 74.5029C53.9022 76.2426 53.9746 78.2236 53.9621 79.9662C53.9437 82.5593 53.9969 85.1073 53.949 87.6942C53.9345 88.4777 53.8085 89.2362 53.7724 90H53.2526C53.2597 89.6704 53.2718 89.5228 53.2001 89.1984C52.8848 88.9304 51.7217 88.5428 51.1899 88.2132C50.0106 87.4806 45.8047 84.0618 44.5936 84.5667C42.6631 85.3715 40.4031 87.1233 38.6849 88.3485C38.3077 88.6175 37.2894 88.9444 36.8425 89.1114C36.6977 89.3364 36.741 89.7196 36.7472 90H36.2323ZM45.6547 71.8973C47.7753 71.6478 49.5969 70.2746 50.4204 68.3046C51.2439 66.3345 50.9415 64.0734 49.6293 62.389C48.317 60.7046 46.1986 59.8583 44.0869 60.1748C40.8929 60.6537 38.6736 63.6064 39.1017 66.8076C39.5299 70.0088 42.447 72.2746 45.6547 71.8973Z" fill="var(--fill-0, #006960)"/>
</g>
</g>
</svg>
